<svg width="43" height="41" viewBox="0 0 43 41" fill="none" xmlns="http://www.w3.org/2000/svg">
<path d="M18.2434 22.7963C18.4399 22.9015 18.6555 22.9536 18.8704 22.9536C19.1282 22.9536 19.3853 22.8785 19.6077 22.7303L26.1857 18.3449C26.5555 18.0986 26.7775 17.6835 26.7775 17.2393C26.7775 16.7949 26.5555 16.38 26.1857 16.1336L19.6077 11.7483C19.2 11.4762 18.6758 11.4508 18.2434 11.6823C17.8114 11.9135 17.5416 12.3638 17.5416 12.8539V21.6247C17.5416 22.1147 17.8114 22.5649 18.2434 22.7963ZM20.1994 15.3369L23.0529 17.2391L20.1994 19.1414V15.3369Z" />
<path d="M40.7974 0.495117H1.32889C0.595017 0.495117 0 1.09013 0 1.82401V6.27578C0 7.00966 0.595017 7.60468 1.32889 7.60468H4.38539V28.2027C4.38539 28.9366 4.98041 29.5316 5.71429 29.5316H19.7343V33.7131C18.4495 34.2387 17.5416 35.5017 17.5416 36.9735C17.5416 38.9153 19.1214 40.4951 21.0632 40.4951C23.0049 40.4951 24.5847 38.9153 24.5847 36.9735C24.5847 35.5018 23.6768 34.2387 22.3921 33.7131V29.5316H36.412C37.1459 29.5316 37.7409 28.9366 37.7409 28.2027V7.60482H40.7974C41.5313 7.60482 42.1263 7.0098 42.1263 6.27593V1.82401C42.1263 1.09013 41.5313 0.495117 40.7974 0.495117ZM21.0632 37.8375C20.5869 37.8375 20.1994 37.45 20.1994 36.9737C20.1994 36.4974 20.5869 36.1099 21.0632 36.1099C21.5395 36.1099 21.927 36.4974 21.927 36.9737C21.927 37.4498 21.5395 37.8375 21.0632 37.8375ZM35.0831 26.874H7.04318V7.60482H35.0831V26.874ZM2.65779 4.94703V3.1529H39.4685V4.94689H2.65779V4.94703Z" />
</svg>
