<svg width="47" height="46" viewBox="0 0 47 46" fill="none" xmlns="http://www.w3.org/2000/svg">
<path d="M45.441 23.5618L43.5244 21.6451L29.16 7.28069C29.158 7.27877 29.1561 7.27685 29.1533 7.27398L24.3578 2.47849L22.4411 0.56183C21.6936 -0.186626 20.4784 -0.186626 19.7309 0.56183C18.9825 1.31029 18.9825 2.52353 19.7309 3.27199L20.5695 4.11053L3.48724 31.4412L3.27449 31.2284C2.52699 30.48 1.31183 30.48 0.564333 31.2284C-0.184123 31.9769 -0.184123 33.1901 0.564333 33.9386L2.48099 35.8552L10.1476 43.5219L12.0643 45.4385C12.4381 45.8132 12.9287 46.0001 13.4194 46.0001C13.91 46.0001 14.4007 45.8132 14.7745 45.4385C15.5229 44.6901 15.5229 43.4768 14.7745 42.7284L14.5617 42.5156L16.8818 41.0657C17.9302 43.405 20.2772 45.0418 23.0027 45.0418C26.7018 45.0418 29.711 42.0326 29.711 38.3335C29.711 36.7101 29.1283 35.2084 28.1384 34.0296L41.8923 25.4334L42.7309 26.2719C43.1046 26.6466 43.5953 26.8335 44.086 26.8335C44.5766 26.8335 45.0673 26.6466 45.441 26.2719C46.1895 25.5235 46.1895 24.3102 45.441 23.5618ZM23.0027 41.2085C21.6428 41.2085 20.5014 40.2597 20.2034 38.989L24.8178 36.1054C25.4733 36.643 25.8777 37.4614 25.8777 38.3335C25.8777 39.9186 24.5878 41.2085 23.0027 41.2085ZM23.0257 32.7042L17.2144 36.3344C17.2096 36.3373 17.2067 36.3411 17.2019 36.344L11.7797 39.7326L6.26928 34.2222L23.3515 6.8916L25.3286 8.86864L16.6164 21.9364C16.0289 22.8171 16.2675 24.0074 17.1482 24.5939C17.4741 24.8133 17.844 24.9168 18.2091 24.9168C18.8282 24.9168 19.4367 24.6169 19.8057 24.063L28.0924 11.6334L39.1103 22.6514L23.0257 32.7042Z" />
<path d="M35.5654 0.322127C34.6857 -0.265329 33.4954 -0.026705 32.908 0.854001L30.9913 3.72899C30.4039 4.6097 30.6425 5.79899 31.5232 6.38644C31.849 6.60494 32.2189 6.70844 32.5841 6.70844C33.2031 6.70844 33.8117 6.40849 34.1806 5.85457L36.0973 2.97958C36.6848 2.09887 36.4461 0.908626 35.5654 0.322127Z" />
<path d="M45.6806 10.4372C45.0932 9.55553 43.9029 9.3169 43.0232 9.90532L40.1482 11.822C39.2675 12.4094 39.0298 13.5987 39.6163 14.4794C39.9853 15.0343 40.5929 15.3333 41.2129 15.3333C41.578 15.3333 41.9479 15.2298 42.2738 15.0113L45.1488 13.0946C46.0295 12.5072 46.2671 11.3179 45.6806 10.4372Z" />
<path d="M44.4827 1.52033C43.7352 0.77187 42.52 0.77187 41.7726 1.52033L36.9809 6.31198C36.2324 7.06044 36.2324 8.27368 36.9809 9.02214C37.3546 9.39685 37.8453 9.58372 38.336 9.58372C38.8266 9.58372 39.3173 9.39685 39.6911 9.02214L44.4827 4.23049C45.2312 3.48203 45.2312 2.26878 44.4827 1.52033Z" />
</svg>
