<svg width="46" height="46" viewBox="0 0 46 46" fill="none" xmlns="http://www.w3.org/2000/svg">
<path d="M44.0833 9.58333H38.3333V1.91667C38.3333 0.858667 37.4747 0 36.4167 0H5.75C2.57887 0 0 2.57887 0 5.75V40.25C0 43.4211 2.57887 46 5.75 46H40.25C43.4211 46 46 43.4211 46 40.25V11.5C46 10.442 45.1413 9.58333 44.0833 9.58333ZM5.75 42.1667C4.69296 42.1667 3.83333 41.307 3.83333 40.25V5.75C3.83333 4.69296 4.69296 3.83333 5.75 3.83333H34.5V11.5V40.25C34.5 40.9227 34.6227 41.5658 34.8354 42.1667H5.75ZM42.1667 40.25C42.1667 41.307 41.307 42.1667 40.25 42.1667C39.193 42.1667 38.3333 41.307 38.3333 40.25V13.4167H42.1667V40.25Z" />
<path d="M28.75 9.5835H9.58332C8.52532 9.5835 7.66666 10.4422 7.66666 11.5002C7.66666 12.5582 8.52532 13.4168 9.58332 13.4168H28.75C29.808 13.4168 30.6667 12.5582 30.6667 11.5002C30.6667 10.4422 29.808 9.5835 28.75 9.5835Z" />
<path d="M24.9167 21.0835H9.58332C8.52532 21.0835 7.66666 21.9422 7.66666 23.0002C7.66666 24.0582 8.52532 24.9168 9.58332 24.9168H24.9167C25.9747 24.9168 26.8333 24.0582 26.8333 23.0002C26.8333 21.9422 25.9747 21.0835 24.9167 21.0835Z" />
<path d="M23 26.8335H9.58332C8.52532 26.8335 7.66666 27.6922 7.66666 28.7502C7.66666 29.8082 8.52532 30.6668 9.58332 30.6668H23C24.058 30.6668 24.9167 29.8082 24.9167 28.7502C24.9167 27.6922 24.058 26.8335 23 26.8335Z" />
<path d="M21.0833 32.5835H9.58332C8.52532 32.5835 7.66666 33.4422 7.66666 34.5002C7.66666 35.5582 8.52532 36.4168 9.58332 36.4168H21.0833C22.1413 36.4168 23 35.5582 23 34.5002C23 33.4422 22.1413 32.5835 21.0833 32.5835Z" />
</svg>
